<svg id="shopping-basket" xmlns="http://www.w3.org/2000/svg" width="35" height="30.665" viewBox="0 0 35 30.665">
  <path id="Path_681" data-name="Path 681" d="M26.009,45.664l-7.064-10.6a1.982,1.982,0,0,0-1.284-.642,1.46,1.46,0,0,0-1.284.642l-7.064,10.6H1.606A1.517,1.517,0,0,0,0,47.269v.482L4.014,62.682a3.273,3.273,0,0,0,3.05,2.408H27.936a3.094,3.094,0,0,0,3.05-2.408L35,47.751v-.482a1.517,1.517,0,0,0-1.606-1.606Zm-13.165,0L17.661,38.6l4.817,7.064Zm4.817,12.844A3.211,3.211,0,1,1,20.872,55.3,3.22,3.22,0,0,1,17.661,58.508Z" transform="translate(0 -34.425)" fill="#3ed3cd"/>
</svg>
