<svg xmlns="http://www.w3.org/2000/svg" width="54.418" height="51.874" viewBox="0 0 54.418 51.874">
  <g id="Group_304" data-name="Group 304" transform="translate(-64.287 -2.5)">
    <g id="social-button-2" transform="translate(64.787 3)">
      <path id="Rectangle_3" data-name="Rectangle 3" d="M6.284,0H47.133c3.471,0,6.284,3.8,6.284,8.479V42.395c0,4.683-2.814,8.479-6.284,8.479H6.284C2.814,50.874,0,47.078,0,42.395V8.479C0,3.8,2.814,0,6.284,0Z" fill="#fff" stroke="#ccc" stroke-width="1"/>
    </g>
    <path id="Path_51" data-name="Path 51" d="M19.3,5.308V7.117H17.491V8.927H15.682V7H13.872V5.308h1.809V3.5h1.809V5.308Zm-13.149,0h5.79c0,.362.121.6.121.965A5.667,5.667,0,0,1,6.152,12.3a6.152,6.152,0,0,1,0-12.3,5.957,5.957,0,0,1,4.1,1.568L8.565,3.257a3.216,3.216,0,0,0-2.413-.965,3.887,3.887,0,0,0-3.86,3.86,3.811,3.811,0,0,0,3.86,3.86,3.286,3.286,0,0,0,3.5-2.654h-3.5Z" transform="translate(83.65 22.83)" fill="#de5c5c" fill-rule="evenodd"/>
  </g>
</svg>
