<svg id="Google_plus" data-name="Google plus" xmlns="http://www.w3.org/2000/svg" width="19.301" height="19.301" viewBox="0 0 19.301 19.301">
  <rect id="Rectangle_121" data-name="Rectangle 121" width="19.301" height="19.301" transform="translate(0)" fill="none"/>
  <path id="Path_51" data-name="Path 51" d="M19.3,5.308V7.117H17.491V8.927H15.682V7H13.872V5.308h1.809V3.5h1.809V5.308Zm-13.149,0h5.79c0,.362.121.6.121.965A5.667,5.667,0,0,1,6.152,12.3a6.152,6.152,0,0,1,0-12.3,5.957,5.957,0,0,1,4.1,1.568L8.565,3.257a3.216,3.216,0,0,0-2.413-.965,3.887,3.887,0,0,0-3.86,3.86,3.811,3.811,0,0,0,3.86,3.86,3.286,3.286,0,0,0,3.5-2.654h-3.5Z" transform="translate(0 3.619)" fill="#de5c5c" fill-rule="evenodd"/>
</svg>
