<svg xmlns="http://www.w3.org/2000/svg" width="19.993" height="22.995" viewBox="0 0 19.993 22.995">
  <path id="Path" d="M17.231,17.676a.559.559,0,0,1-.52.354h-2.2a11.457,11.457,0,0,1-3.722,2.863.6.6,0,0,1-.189.05c-.408.032-.707.049-.911.049A7.623,7.623,0,0,1,7.757,20.7l-.454.229a.558.558,0,0,1-.252.06H6.4c-2.259,0-2.733-1.1-2.733-2.015,0-.028,0-.056,0-.089a1.84,1.84,0,0,1-1.8-1.946c0-.079,0-.176.014-.294a2.088,2.088,0,0,1-.944-.628,1.83,1.83,0,0,1-.4-1.213,2.211,2.211,0,0,1,.311-1.079A3.266,3.266,0,0,1,0,11.529,2.749,2.749,0,0,1,1.628,9.092a8.479,8.479,0,0,1,4.109-.87h.132c-.147-.876.494-.806.069-1.635l-.262-.454a6.364,6.364,0,0,1-.913-2.7A3.235,3.235,0,0,1,7.609.059L7.787.016a.566.566,0,0,1,.428.067.556.556,0,0,1,.25.351L9.229,3.8,12.3,7.057c.216.249-.39-.267.206.522l.47.617A6.565,6.565,0,0,0,14,9.4a1.528,1.528,0,0,0,.86.184h1.78a.556.556,0,0,1,.509.33,9.469,9.469,0,0,1,.848,3.885A10.634,10.634,0,0,1,17.231,17.676Z" transform="translate(1 1.004)" fill="none" stroke="#979797" stroke-miterlimit="10" stroke-width="2"/>
</svg>
