<svg xmlns="http://www.w3.org/2000/svg" width="123" height="53.665" viewBox="0 0 123 53.665">
  <g id="Group_8" data-name="Group 8" transform="translate(0 -6)">
    <text id="DaddyEat" transform="translate(0 37)" fill="#404040" font-size="29" font-family="SegoeUI, Segoe UI"><tspan x="0" y="0">Daddy</tspan><tspan y="0" fill="#e5b826">Eat</tspan></text>
    <path id="Path_1481" data-name="Path 1481" d="M4.926,0V-1.3H4.9A2.547,2.547,0,0,1,4-.238a2.319,2.319,0,0,1-1.317.4A2.023,2.023,0,0,1,1.212-.362a1.748,1.748,0,0,1-.54-1.314q0-1.7,2.253-2.057l2-.3q0-2.095-1.574-2.095a3.207,3.207,0,0,0-2.088.863v-.7a3.184,3.184,0,0,1,.981-.489,3.743,3.743,0,0,1,1.165-.2,1.961,1.961,0,0,1,1.552.622A2.654,2.654,0,0,1,5.51-4.228V0ZM3.136-3.237A3.1,3.1,0,0,0,1.7-2.764,1.276,1.276,0,0,0,1.289-1.7a1.273,1.273,0,0,0,.384.952,1.467,1.467,0,0,0,1.07.375A2.007,2.007,0,0,0,4.3-1.07a2.587,2.587,0,0,0,.622-1.793V-3.5Zm7.928,2.082h-.025V2.99h-.584V-6.5h.584v1.339h.025a2.569,2.569,0,0,1,1-1.108,2.73,2.73,0,0,1,1.431-.39,2.354,2.354,0,0,1,1.933.854,3.569,3.569,0,0,1,.7,2.32,4.124,4.124,0,0,1-.8,2.637,2.552,2.552,0,0,1-2.1,1.006A2.292,2.292,0,0,1,11.064-1.155Zm-.025-2.418v.819a2.459,2.459,0,0,0,.616,1.679,2.05,2.05,0,0,0,1.619.7,1.916,1.916,0,0,0,1.619-.854,3.723,3.723,0,0,0,.622-2.244,3.022,3.022,0,0,0-.571-1.936,1.849,1.849,0,0,0-1.523-.717,2.142,2.142,0,0,0-1.758.762A2.744,2.744,0,0,0,11.039-3.574Zm10.3,2.418H21.31V2.99h-.584V-6.5h.584v1.339h.025a2.569,2.569,0,0,1,1-1.108,2.73,2.73,0,0,1,1.431-.39A2.354,2.354,0,0,1,25.7-5.8a3.569,3.569,0,0,1,.7,2.32,4.124,4.124,0,0,1-.8,2.637,2.552,2.552,0,0,1-2.1,1.006A2.292,2.292,0,0,1,21.335-1.155ZM21.31-3.574v.819a2.459,2.459,0,0,0,.616,1.679,2.05,2.05,0,0,0,1.619.7,1.916,1.916,0,0,0,1.619-.854,3.723,3.723,0,0,0,.622-2.244,3.022,3.022,0,0,0-.571-1.936,1.849,1.849,0,0,0-1.523-.717,2.142,2.142,0,0,0-1.758.762A2.744,2.744,0,0,0,21.31-3.574ZM42.334,0,41.121-2.666a2.9,2.9,0,0,0-.749-1.108,1.516,1.516,0,0,0-.939-.282H38.3V0h-.628V-9.1H40.2a2.648,2.648,0,0,1,1.895.651,2.252,2.252,0,0,1,.689,1.717,2.44,2.44,0,0,1-.565,1.644,2.641,2.641,0,0,1-1.581.851v.025A2.459,2.459,0,0,1,41.692-2.9L43.044,0ZM38.3-8.525v3.9h1.568a2.4,2.4,0,0,0,1.654-.546,1.9,1.9,0,0,0,.613-1.5,1.729,1.729,0,0,0-.552-1.362A2.3,2.3,0,0,0,40-8.525Zm9.592,5.3a3.215,3.215,0,0,0,.619,2.095,2.077,2.077,0,0,0,1.7.755,3.455,3.455,0,0,0,2.133-.806v.622a3.8,3.8,0,0,1-2.253.717,2.549,2.549,0,0,1-2.031-.9,3.789,3.789,0,0,1-.774-2.545,3.625,3.625,0,0,1,.809-2.4,2.607,2.607,0,0,1,2.1-.974,2.2,2.2,0,0,1,1.86.851,3.75,3.75,0,0,1,.647,2.323v.26Zm4.2-.533a2.876,2.876,0,0,0-.54-1.746,1.68,1.68,0,0,0-1.384-.622,2.03,2.03,0,0,0-1.514.613,2.94,2.94,0,0,0-.74,1.755ZM56.972-.286v-.7a2.446,2.446,0,0,0,.8.451,2.513,2.513,0,0,0,.813.165q1.53,0,1.53-1.25a.958.958,0,0,0-.336-.736,4.057,4.057,0,0,0-1.092-.628,3.707,3.707,0,0,1-1.311-.841A1.556,1.556,0,0,1,57-4.888,1.568,1.568,0,0,1,57.6-6.17,2.305,2.305,0,0,1,59.1-6.659a2.834,2.834,0,0,1,1.435.343v.66a2.715,2.715,0,0,0-1.5-.47A1.547,1.547,0,0,0,58-5.792a1.082,1.082,0,0,0-.394.866,1.115,1.115,0,0,0,.248.752,3.319,3.319,0,0,0,1.092.663,4.782,4.782,0,0,1,1.4.847,1.422,1.422,0,0,1,.381,1.038,1.621,1.621,0,0,1-.581,1.279,2.363,2.363,0,0,1-1.6.5A2.649,2.649,0,0,1,56.972-.286Zm10.944.2a2.016,2.016,0,0,1-.857.216q-1.441,0-1.441-1.727V-5.967H64.45V-6.5h1.168V-8.188q.14-.051.292-.1t.292-.1V-6.5h1.714v.533H66.2v4.291a1.727,1.727,0,0,0,.213.974.82.82,0,0,0,.72.3,1.612,1.612,0,0,0,.781-.235ZM76.485,0V-1.181H76.46A2.217,2.217,0,0,1,74.365.159q-2.3,0-2.3-2.9V-6.5h.59v3.612a3.3,3.3,0,0,0,.435,1.917,1.579,1.579,0,0,0,1.368.6,1.83,1.83,0,0,0,1.469-.667,2.667,2.667,0,0,0,.562-1.777V-6.5h.584V0Zm8.722-5.891a1.145,1.145,0,0,0-.686-.209,1.517,1.517,0,0,0-1.289.793,4.1,4.1,0,0,0-.521,2.253V0h-.571V-6.5h.571v1.441h.025a2.366,2.366,0,0,1,.7-1.155,1.667,1.667,0,0,1,1.117-.413,1.731,1.731,0,0,1,.647.114ZM93.307,0V-1.3h-.025a2.547,2.547,0,0,1-.9,1.063,2.319,2.319,0,0,1-1.317.4,2.023,2.023,0,0,1-1.466-.521,1.748,1.748,0,0,1-.54-1.314q0-1.7,2.253-2.057l2-.3q0-2.095-1.574-2.095a3.207,3.207,0,0,0-2.088.863v-.7a3.184,3.184,0,0,1,.981-.489,3.743,3.743,0,0,1,1.165-.2,1.961,1.961,0,0,1,1.552.622,2.654,2.654,0,0,1,.549,1.809V0Zm-1.79-3.237a3.1,3.1,0,0,0-1.435.473A1.276,1.276,0,0,0,89.67-1.7a1.273,1.273,0,0,0,.384.952,1.467,1.467,0,0,0,1.07.375,2.007,2.007,0,0,0,1.562-.7,2.587,2.587,0,0,0,.622-1.793V-3.5ZM103.254,0V-3.783q0-2.342-1.688-2.342a1.958,1.958,0,0,0-1.542.689,2.5,2.5,0,0,0-.6,1.7V0h-.584V-6.5h.584v1.181h.025a2.352,2.352,0,0,1,2.222-1.339,1.94,1.94,0,0,1,1.612.7,3.148,3.148,0,0,1,.559,2V0Zm8.1-.089a2.016,2.016,0,0,1-.857.216q-1.441,0-1.441-1.727V-5.967h-1.168V-6.5h1.168V-8.188q.14-.051.292-.1t.292-.1V-6.5h1.714v.533H109.64v4.291a1.727,1.727,0,0,0,.213.974.82.82,0,0,0,.72.3,1.612,1.612,0,0,0,.781-.235Z" transform="translate(1.393 56.675)" fill="#b7b7b7"/>
  </g>
</svg>
