<svg id="Group_7" data-name="Group 7" xmlns="http://www.w3.org/2000/svg" xmlns:xlink="http://www.w3.org/1999/xlink" width="82.432" height="50.723" viewBox="0 0 82.432 50.723">
  <defs>
    <linearGradient id="linear-gradient" y1="0.5" x2="1" y2="0.5" gradientUnits="objectBoundingBox">
      <stop offset="0" stop-color="#1faac4"/>
      <stop offset="1" stop-color="#54e4d2"/>
    </linearGradient>
    <linearGradient id="linear-gradient-2" y1="0.5" x2="1" y2="0.5" gradientUnits="objectBoundingBox">
      <stop offset="0" stop-color="#36c3ca" stop-opacity="0.2"/>
      <stop offset="0.627" stop-color="#54e4d2" stop-opacity="0.302"/>
      <stop offset="1" stop-color="#1faac4"/>
    </linearGradient>
    <linearGradient id="linear-gradient-3" x1="-0.033" y1="0.755" x2="1.025" y2="0.427" gradientUnits="objectBoundingBox">
      <stop offset="0" stop-color="#eee" stop-opacity="0.671"/>
      <stop offset="1" stop-color="#d8cfcf" stop-opacity="0.671"/>
    </linearGradient>
    <linearGradient id="linear-gradient-4" x1="-0.253" y1="0.664" x2="1.257" y2="0.312" gradientUnits="objectBoundingBox">
      <stop offset="0" stop-color="#d1d1d1" stop-opacity="0.212"/>
      <stop offset="1" stop-color="#cbcbcb" stop-opacity="0.671"/>
    </linearGradient>
    <linearGradient id="linear-gradient-5" x1="-0.042" y1="0.97" x2="1.006" y2="0.864" gradientUnits="objectBoundingBox">
      <stop offset="0" stop-color="#d1d1d1" stop-opacity="0.169"/>
      <stop offset="1" stop-color="#d5d5d5" stop-opacity="0.671"/>
    </linearGradient>
  </defs>
  <g id="Group_4" data-name="Group 4" transform="translate(0 0)">
    <path id="Path_1" data-name="Path 1" d="M204.331,11.874C203.223,4.2,193.017-.052,171.862,0c-13.845.033-15.548,6.335-12.786,39a6.87,6.87,0,0,0,.5,2.068c1.853,4.317,12.191,1.77,21.652-1.29C193.48,35.825,206.1,24.065,204.331,11.874ZM165.692,33.46a92.5,92.5,0,0,1-.132-15.995,8.527,8.527,0,0,1,5.657-8.055c6.021-2.862,17.384-2.7,20.61,2.895,2.878,4.979-1.207,12.091-4.251,15.515C181.72,34.4,166.519,39.828,165.692,33.46Z" transform="translate(-122.066 7.03)" fill="url(#linear-gradient)"/>
    <path id="Path_2" data-name="Path 2" d="M215.844,20.538C213.428,8.825,199.806,1.685,188.767,4.095c-12.351,2.7-17.309,16.421-18.537,19.822-.625,1.712-6.769,18.741,1.041,26.805,7.457,7.681,22.037,1.487,28.952-3.154C202.472,46.037,218.823,35.022,215.844,20.538ZM202.681,40.7c-7.373,8.965-26.515,16.353-27.556,7.681-.687-5.721-.6-12.862-.167-21.782.375-7.659,4.916-9.866,7.123-10.97,7.582-3.9,21.891-3.672,25.952,3.942C211.679,26.35,206.513,36.036,202.681,40.7Z" transform="translate(-133.773 -3.628)" fill="url(#linear-gradient-2)"/>
    <path id="Rectangle_1" data-name="Rectangle 1" d="M5.7,0H25.919a0,0,0,0,1,0,0V.634a5.7,5.7,0,0,1-5.7,5.7H.634A.634.634,0,0,1,0,5.7v0A5.7,5.7,0,0,1,5.7,0Z" transform="translate(5.285 18.561) rotate(-10)" fill="url(#linear-gradient-3)"/>
    <path id="Rectangle_2" data-name="Rectangle 2" d="M5.7,0h10.2a0,0,0,0,1,0,0V.634a5.7,5.7,0,0,1-5.7,5.7H.634A.634.634,0,0,1,0,5.7v0A5.7,5.7,0,0,1,5.7,0Z" transform="translate(15.193 27.792) rotate(-10)" fill="url(#linear-gradient-4)"/>
    <path id="Rectangle_3" data-name="Rectangle 3" d="M6.962,0H31.221a0,0,0,0,1,0,0V0a7.658,7.658,0,0,1-7.658,7.658H.7a.7.7,0,0,1-.7-.7v0A6.962,6.962,0,0,1,6.962,0Z" transform="translate(0 41.35) rotate(-10)" fill="url(#linear-gradient-5)"/>
  </g>
  <circle id="Ellipse_1" data-name="Ellipse 1" cx="2.161" cy="2.161" r="2.161" transform="translate(61.356 21.18)" fill="#2a2a2a"/>
  <path id="Path_10" data-name="Path 10" d="M2.161,0A2.161,2.161,0,1,1,0,2.161,2.161,2.161,0,0,1,2.161,0Z" transform="translate(48.39 21.18)" fill="#2a2a2a"/>
  <path id="Path_6" data-name="Path 6" d="M137.8,516.245s-5.5,4.56-8.174,3.245a12.7,12.7,0,0,1-3.465-2.181" transform="translate(-76.446 -483.994)" fill="none" stroke="#e5b826" stroke-width="1"/>
</svg>
