<svg xmlns="http://www.w3.org/2000/svg" width="19.847" height="19.143" viewBox="0 0 19.847 19.143">
  <path id="Star_Copy_2" data-name="Star Copy 2" d="M15.4,20.966a2.853,2.853,0,0,0-2.642,0l-1.1.573a2.836,2.836,0,0,1-4.12-2.977l.209-1.214a2.815,2.815,0,0,0-.817-2.5l-.887-.86A2.82,2.82,0,0,1,7.616,9.171l1.226-.177A2.838,2.838,0,0,0,10.98,7.449l.548-1.105a2.846,2.846,0,0,1,5.092,0l.548,1.105a2.838,2.838,0,0,0,2.138,1.545l1.226.177a2.82,2.82,0,0,1,1.574,4.817l-.887.86a2.815,2.815,0,0,0-.817,2.5l.209,1.214a2.836,2.836,0,0,1-4.12,2.977Z" transform="translate(-4.15 -3.77)" fill="none" stroke="#979797" stroke-miterlimit="10" stroke-width="2"/>
</svg>
