<svg id="social-button-1" xmlns="http://www.w3.org/2000/svg" width="53.418" height="50.874" viewBox="0 0 53.418 50.874">
  <rect id="Rectangle_3" data-name="Rectangle 3" width="53.418" height="50.874" rx="10" fill="#00aced"/>
  <path id="twitter" d="M16.7,1.611a7.36,7.36,0,0,1-1.717,1.77c.011.148.011.3.011.445a9.673,9.673,0,0,1-9.74,9.74A9.674,9.674,0,0,1,0,12.03a7.078,7.078,0,0,0,.827.042,6.856,6.856,0,0,0,4.25-1.463,3.429,3.429,0,0,1-3.2-2.374,4.314,4.314,0,0,0,.647.053,3.619,3.619,0,0,0,.9-.117A3.424,3.424,0,0,1,.678,4.812V4.769A3.448,3.448,0,0,0,2.226,5.2,3.428,3.428,0,0,1,1.166.625,9.731,9.731,0,0,0,8.225,4.208a3.864,3.864,0,0,1-.085-.784,3.427,3.427,0,0,1,5.925-2.342A6.739,6.739,0,0,0,16.237.254a3.414,3.414,0,0,1-1.505,1.887A6.864,6.864,0,0,0,16.7,1.611Z" transform="translate(18.554 18.654)" fill="#fff"/>
</svg>
